<?xml version="1.0" standalone="no"?>
<!DOCTYPE svg PUBLIC "-//W3C//DTD SVG 20010904//EN"
 "http://www.w3.org/TR/2001/REC-SVG-20010904/DTD/svg10.dtd">
<svg version="1.0" xmlns="http://www.w3.org/2000/svg"
 width="528.000000pt" height="528.000000pt" viewBox="0 0 528.000000 528.000000"
 preserveAspectRatio="xMidYMid meet">
<metadata>
Created by potrace 1.14, written by Peter Selinger 2001-2017
</metadata>
<g transform="translate(0.000000,528.000000) scale(0.100000,-0.100000)"
fill="#000000" stroke="none">
<path d="M4858 5206 c-21 -8 -38 -12 -38 -10 0 1 -24 -5 -52 -15 -29 -10 -57
-19 -63 -20 -5 -1 -33 -9 -61 -17 -28 -8 -60 -17 -70 -19 -11 -2 -57 -16 -104
-30 -47 -15 -107 -33 -135 -40 -85 -23 -479 -139 -510 -150 -13 -4 -7 4 15 24
19 17 41 31 48 31 6 0 12 5 12 10 0 6 7 10 15 10 8 0 15 5 15 10 0 6 7 10 15
10 9 0 18 7 21 15 4 8 12 15 20 15 8 0 14 5 14 10 0 6 4 10 9 10 8 0 193 121
215 141 12 11 -18 5 -144 -29 -41 -11 -111 -32 -155 -47 -44 -14 -84 -27 -90
-28 -5 -2 -14 -5 -20 -8 -11 -7 -114 -42 -130 -45 -6 -1 -32 -11 -57 -23 -26
-11 -49 -21 -52 -21 -2 0 -17 -5 -33 -12 -15 -6 -32 -12 -38 -14 -19 -5 -272
-113 -334 -143 -31 -14 -104 -86 -285 -276 -31 -33 -131 -136 -221 -230 -90
-93 -184 -191 -208 -217 -25 -27 -47 -48 -50 -48 -2 0 43 96 101 213 109 220
145 298 140 303 -2 1 -36 -17 -76 -42 -40 -24 -77 -44 -81 -44 -5 0 -11 -4
-13 -8 -1 -4 -21 -19 -43 -32 -22 -13 -44 -28 -50 -32 -5 -5 -41 -29 -79 -54
-38 -25 -128 -89 -200 -143 -119 -90 -146 -111 -213 -168 -15 -13 -31 -57 -57
-163 -20 -80 -38 -154 -40 -165 -3 -11 -21 -85 -41 -165 -44 -174 -43 -171
-44 -189 -1 -8 -4 -12 -7 -9 -5 6 -9 38 -18 181 -3 43 -8 82 -11 87 -4 6 -1
10 5 10 6 0 8 5 4 11 -7 12 -12 59 -15 137 0 28 -4 54 -8 57 -8 4 -225 -206
-331 -320 -232 -249 -432 -519 -593 -797 -31 -54 -54 -98 -51 -98 2 0 -8 -19
-23 -42 -14 -24 -26 -44 -25 -45 1 -2 -8 -24 -19 -50 -30 -69 -48 -116 -83
-220 l-31 -92 -120 80 c-66 44 -135 90 -153 101 l-33 20 6 -48 c9 -70 52 -247
71 -291 8 -21 17 -46 19 -55 4 -20 102 -217 118 -238 7 -8 18 -25 24 -37 12
-22 12 -22 -15 -12 -63 25 -324 100 -329 95 -9 -9 46 -137 94 -217 42 -71 127
-169 199 -229 49 -41 121 -90 133 -90 16 0 14 -16 -15 -105 -14 -44 -27 -87
-29 -95 -2 -8 -11 -40 -20 -70 -9 -30 -18 -64 -20 -75 -3 -11 -7 -29 -10 -40
-10 -41 -37 -161 -41 -185 -3 -14 -9 -41 -13 -60 -5 -19 -9 -42 -9 -50 -1 -8
-5 -33 -11 -55 -5 -22 -12 -58 -15 -80 -4 -23 -9 -52 -12 -65 -2 -14 -7 -41
-10 -60 -2 -19 -6 -42 -9 -50 -3 -8 -7 -33 -10 -55 -2 -22 -7 -51 -10 -65 -6
-25 -4 -26 92 -42 53 -10 99 -16 100 -14 5 4 10 36 18 107 3 31 7 65 9 75 5
26 18 113 22 144 1 14 5 36 8 50 4 14 8 39 11 55 9 64 17 110 21 116 2 3 6 21
9 40 3 19 28 120 55 224 66 255 153 509 248 725 9 19 16 37 17 40 8 27 149
314 192 390 11 19 37 67 58 105 22 39 43 72 47 73 4 2 8 8 8 13 0 15 204 328
257 394 4 6 44 58 87 115 44 58 88 112 98 121 10 9 18 21 18 27 0 6 3 12 8 14
4 2 23 21 42 43 206 238 439 472 645 646 22 19 42 36 45 39 3 3 27 24 55 45
27 22 55 45 61 50 6 6 23 19 39 30 15 11 44 34 65 50 94 74 119 92 292 209 70
47 131 86 137 86 5 0 11 4 13 9 3 10 214 137 333 201 177 95 245 129 245 122
0 -4 4 -2 8 4 4 6 50 30 101 53 85 38 96 41 107 27 14 -19 68 -166 63 -170 -2
-2 -92 -46 -199 -99 -181 -89 -300 -153 -425 -228 -27 -16 -60 -35 -72 -41
-13 -6 -23 -15 -23 -20 0 -4 -5 -8 -11 -8 -13 0 -115 -65 -137 -87 -7 -7 -17
-13 -21 -13 -8 0 -185 -124 -241 -169 -14 -10 -61 -48 -105 -82 -166 -130
-270 -223 -465 -419 -200 -200 -282 -294 -476 -545 -76 -99 -304 -446 -304
-463 0 -6 -4 -12 -8 -14 -18 -7 -198 -354 -277 -533 -76 -172 -134 -318 -129
-327 4 -7 159 -3 243 7 96 11 310 50 318 59 3 2 6 28 8 58 14 181 18 228 30
368 6 59 11 133 15 200 2 24 2 24 11 -5 6 -16 12 -43 15 -60 3 -16 9 -41 14
-55 9 -25 16 -56 25 -115 3 -16 10 -41 14 -55 5 -14 19 -70 31 -125 12 -55 26
-112 32 -127 10 -26 10 -26 46 -12 57 23 86 36 102 45 8 5 22 12 30 15 29 12
120 59 136 71 15 11 14 17 -11 70 -15 32 -50 105 -77 163 -27 58 -65 136 -84
174 -38 75 -31 74 45 -8 25 -27 64 -68 86 -91 22 -23 72 -76 112 -118 40 -43
76 -77 81 -77 5 0 42 32 82 71 51 50 108 126 197 262 69 106 153 230 186 277
62 87 168 231 177 240 3 3 23 28 45 55 133 167 327 364 490 500 33 28 71 60
85 73 14 12 28 22 32 22 4 0 20 11 35 25 38 33 35 31 145 105 53 36 94 68 90
71 -4 4 -47 20 -97 37 -49 16 -142 49 -205 72 -63 22 -123 43 -134 45 -27 6
-33 15 -10 16 10 1 23 1 27 0 12 -2 468 -13 597 -15 l115 -1 95 54 c111 63
226 137 235 150 3 6 -3 10 -12 10 -10 -1 -43 2 -73 5 -30 3 -86 8 -125 11 -38
2 -99 7 -135 11 -36 3 -84 6 -107 7 -23 1 -44 5 -47 8 -5 4 76 27 159 43 29 6
522 122 577 136 49 13 98 54 169 142 19 23 42 50 51 60 33 33 201 291 196 301
0 1 9 22 22 46 23 47 49 113 56 146 26 124 27 241 4 286 -6 10 -8 19 -4 19 13
0 -58 112 -93 145 -38 36 -141 95 -164 95 -8 -1 -31 -7 -51 -14z"/>
</g>
</svg>
